<svg width="109" height="48" viewBox="0 0 109 48" fill="none" xmlns="http://www.w3.org/2000/svg">
<path fill-rule="evenodd" clip-rule="evenodd" d="M15.8596 16.0343C15.8596 17.8525 14.5963 19.1199 12.6771 19.3212C9.04182 19.5755 6.82002 21.9533 6.82002 25.7954V35.4038C6.82002 37.4299 5.35574 38.8942 3.43651 38.8942C1.46427 38.8942 0 37.3769 0 35.4038V16.136C0 14.1608 1.46427 12.6965 3.38351 12.6965C5.15256 12.6965 6.51745 14.0104 6.66763 15.7799C8.23349 14.0104 10.4067 12.9487 12.7787 12.9487C14.5963 12.9487 15.8596 14.1608 15.8596 16.0343Z" fill="white"/>
<path fill-rule="evenodd" clip-rule="evenodd" d="M19.5858 35.4036V16.1358C19.5858 14.1605 21.0523 12.6963 23.0223 12.6963C24.9416 12.6963 26.4036 14.1605 26.4036 16.1358V35.4036C26.4036 37.3788 24.9416 38.8939 22.9693 38.8939C21.0523 38.8939 19.5858 37.3788 19.5858 35.4036ZM27.2656 4.1473C27.2656 6.42334 25.2934 8.24595 23.023 8.24595C20.6466 8.24595 18.7296 6.42334 18.7296 4.1473C18.7296 1.82039 20.6466 0 23.023 0C25.2934 0 27.2656 1.82039 27.2656 4.1473Z" fill="white"/>
<path fill-rule="evenodd" clip-rule="evenodd" d="M51.4478 25.7439C51.4478 21.6475 48.9212 18.8671 45.1358 18.8671C41.3967 18.8671 38.6691 21.7492 38.6691 25.7948C38.6691 29.7917 41.3967 32.6738 45.1358 32.6738C48.8704 32.6738 51.4478 29.8426 51.4478 25.7439ZM58.1644 16.1354V44.5605C58.1644 46.5313 56.698 48 54.7787 48C52.8109 48 51.3466 46.5313 51.3466 44.5605V35.8589C49.6306 37.781 47.0024 38.8936 43.8707 38.8936C36.8541 38.8936 31.7501 33.3307 31.7501 25.7439C31.7501 18.1571 36.8541 12.6981 43.8707 12.6981C47.104 12.6981 49.7808 13.8594 51.4968 15.8833C51.6492 14.0629 53.0627 12.6981 54.8317 12.6981C56.751 12.6981 58.1644 14.1624 58.1644 16.1354Z" fill="white"/>
<path fill-rule="evenodd" clip-rule="evenodd" d="M80.7747 16.0343C80.7747 17.8525 79.5114 19.1199 77.5922 19.3212C73.9569 19.5755 71.7351 21.9533 71.7351 25.7954V35.4038C71.7351 37.4299 70.2709 38.8942 68.3516 38.8942C66.3816 38.8942 64.9151 37.3769 64.9151 35.4038V16.136C64.9151 14.1608 66.3816 12.6965 68.3008 12.6965C70.0677 12.6965 71.4325 14.0104 71.5827 15.7799C73.1486 14.0104 75.3218 12.9487 77.6938 12.9487C79.5114 12.9487 80.7747 14.1608 80.7747 16.0343Z" fill="white"/>
<path fill-rule="evenodd" clip-rule="evenodd" d="M102.283 25.7956C102.283 21.697 99.706 18.8658 95.9713 18.8658C92.2322 18.8658 89.5047 21.7987 89.5047 25.7956C89.5047 29.7925 92.1792 32.6724 95.9713 32.6724C99.7568 32.6724 102.283 29.8921 102.283 25.7956ZM109 16.1363V35.4041C109 37.3771 107.587 38.8945 105.614 38.8945C103.847 38.8945 102.434 37.5806 102.231 35.8089C100.515 37.7819 97.891 38.8945 94.7062 38.8945C87.6897 38.8945 82.5857 33.3824 82.5857 25.7956C82.5857 18.2088 87.6897 12.6968 94.7062 12.6968C97.9396 12.6968 100.616 13.8603 102.332 15.8311C102.485 14.0107 103.898 12.6968 105.667 12.6968C107.587 12.6968 109 14.1611 109 16.1363Z" fill="white"/>
</svg>
